<svg width="18" height="15" viewBox="0 0 18 15" fill="none" xmlns="http://www.w3.org/2000/svg">
<rect x="2.90381" width="1.16149" height="1.74223" fill="#FF0000"/>
<rect x="4.06543" width="1.74223" height="1.74223" fill="#FF0000"/>
<rect x="5.80762" width="1.16149" height="1.74223" fill="#FF0000"/>
<rect x="9.87256" width="1.74223" height="1.74223" fill="#FF0000"/>
<rect x="11.6147" width="1.16149" height="1.74223" fill="#FF0000"/>
<rect x="12.7764" width="1.74223" height="1.74223" fill="#FF0000"/>
<rect x="1.16162" y="1.74219" width="1.74223" height="1.16149" fill="#FF0000"/>
<rect x="2.90381" y="1.74219" width="1.16149" height="1.16149" fill="#FF0000"/>
<rect x="4.06543" y="1.74219" width="1.74223" height="1.16149" fill="#FF0000"/>
<rect x="5.80762" y="1.74219" width="1.16149" height="1.16149" fill="#FF0000"/>
<rect x="6.96875" y="1.74219" width="1.74223" height="1.16149" fill="#FF0000"/>
<rect x="8.71094" y="1.74219" width="1.16149" height="1.16149" fill="#FF0000"/>
<rect x="9.87256" y="1.74219" width="1.74223" height="1.16149" fill="#FF0000"/>
<rect x="11.6147" y="1.74219" width="1.16149" height="1.16149" fill="#FF0000"/>
<rect x="12.7764" y="1.74219" width="1.74223" height="1.16149" fill="#FF0000"/>
<rect x="14.5186" y="1.74219" width="1.16149" height="1.16149" fill="#FF0000"/>
<rect y="2.90332" width="1.16149" height="1.74223" fill="#D10000"/>
<rect x="1.16162" y="2.90332" width="1.74223" height="1.74223" fill="#FF0000"/>
<rect x="2.90332" y="2.90332" width="1.16149" height="1.74223" fill="#FF0000"/>
<rect x="4.06543" y="2.90332" width="1.74223" height="1.74223" fill="#FF0000"/>
<rect x="5.80762" y="2.90332" width="1.16149" height="1.74223" fill="#FF0000"/>
<rect x="6.96875" y="2.90332" width="1.74223" height="1.74223" fill="#FF0000"/>
<rect x="8.71094" y="2.90332" width="1.16149" height="1.74223" fill="#FF0000"/>
<rect x="9.87305" y="2.90332" width="1.74223" height="1.74223" fill="#FF0000"/>
<rect x="14.5186" y="2.90332" width="1.16149" height="1.74223" fill="#FF0000"/>
<rect x="15.6802" y="2.90332" width="1.74223" height="1.74223" fill="#FF0000"/>
<rect y="4.64551" width="1.16149" height="1.16149" fill="#D10000"/>
<rect x="1.16162" y="4.64551" width="1.74223" height="1.16149" fill="#D10000"/>
<rect x="2.90332" y="4.64551" width="1.16149" height="1.16149" fill="#FF0000"/>
<rect x="4.06543" y="4.64551" width="1.74223" height="1.16149" fill="#FF0000"/>
<rect x="5.80762" y="4.64551" width="1.16149" height="1.16149" fill="#FF0000"/>
<rect x="6.96875" y="4.64551" width="1.74223" height="1.16149" fill="#FF0000"/>
<rect x="8.71094" y="4.64551" width="1.16149" height="1.16149" fill="#FF0000"/>
<rect x="9.87305" y="4.64551" width="1.74223" height="1.16149" fill="#FF0000"/>
<rect x="11.6152" y="4.64551" width="1.16149" height="1.16149" fill="#FF0000"/>
<rect x="14.5186" y="4.64551" width="1.16149" height="1.16149" fill="#FF0000"/>
<rect x="15.6802" y="4.64551" width="1.74223" height="1.16149" fill="#FF0000"/>
<rect y="5.80762" width="1.16149" height="1.74223" fill="#D10000"/>
<rect x="1.16162" y="5.80762" width="1.74223" height="1.74223" fill="#D10000"/>
<rect x="2.90332" y="5.80762" width="1.16149" height="1.74223" fill="#FF0000"/>
<rect x="4.06543" y="5.80762" width="1.74223" height="1.74223" fill="#FF0000"/>
<rect x="5.80762" y="5.80762" width="1.16149" height="1.74223" fill="#FF0000"/>
<rect x="6.96875" y="5.80762" width="1.74223" height="1.74223" fill="#FF0000"/>
<rect x="8.71094" y="5.80762" width="1.16149" height="1.74223" fill="#FF0000"/>
<rect x="9.87305" y="5.80762" width="1.74223" height="1.74223" fill="#FF0000"/>
<rect x="11.6152" y="5.80762" width="1.16149" height="1.74223" fill="#FF0000"/>
<rect x="12.7764" y="5.80762" width="1.74223" height="1.74223" fill="#FF0000"/>
<rect x="14.5186" y="5.80762" width="1.16149" height="1.74223" fill="#FF0000"/>
<rect x="15.6802" y="5.80762" width="1.74223" height="1.74223" fill="#FF0000"/>
<rect x="1.16162" y="7.5498" width="1.74223" height="1.16149" fill="#D10000"/>
<rect x="2.90332" y="7.5498" width="1.16149" height="1.16149" fill="#D10000"/>
<rect x="4.06543" y="7.5498" width="1.74223" height="1.16149" fill="#FF0000"/>
<rect x="5.80762" y="7.5498" width="1.16149" height="1.16149" fill="#FF0000"/>
<rect x="6.96875" y="7.5498" width="1.74223" height="1.16149" fill="#FF0000"/>
<rect x="8.71094" y="7.5498" width="1.16149" height="1.16149" fill="#FF0000"/>
<rect x="9.87305" y="7.5498" width="1.74223" height="1.16149" fill="#FF0000"/>
<rect x="11.6152" y="7.5498" width="1.16149" height="1.16149" fill="#FF0000"/>
<rect x="12.7764" y="7.5498" width="1.74223" height="1.16149" fill="#FF0000"/>
<rect x="14.5186" y="7.5498" width="1.16149" height="1.16149" fill="#FF0000"/>
<rect x="2.90332" y="8.71094" width="1.16149" height="1.74223" fill="#D10000"/>
<rect x="4.06543" y="8.71094" width="1.74223" height="1.74223" fill="#D10000"/>
<rect x="5.80762" y="8.71094" width="1.16149" height="1.74223" fill="#FF0000"/>
<rect x="6.96875" y="8.71094" width="1.74223" height="1.74223" fill="#FF0000"/>
<rect x="8.71094" y="8.71094" width="1.16149" height="1.74223" fill="#FF0000"/>
<rect x="9.87305" y="8.71094" width="1.74223" height="1.74223" fill="#FF0000"/>
<rect x="11.6152" y="8.71094" width="1.16149" height="1.74223" fill="#FF0000"/>
<rect x="12.7764" y="8.71094" width="1.74223" height="1.74223" fill="#FF0000"/>
<rect x="4.06543" y="10.4531" width="1.74223" height="1.16149" fill="#D10000"/>
<rect x="5.80762" y="10.4531" width="1.16149" height="1.16149" fill="#D10000"/>
<rect x="6.96875" y="10.4531" width="1.74223" height="1.16149" fill="#FF0000"/>
<rect x="8.71094" y="10.4531" width="1.16149" height="1.16149" fill="#FF0000"/>
<rect x="9.87305" y="10.4531" width="1.74223" height="1.16149" fill="#FF0000"/>
<rect x="11.6152" y="10.4531" width="1.16149" height="1.16149" fill="#FF0000"/>
<rect x="5.80762" y="11.6152" width="1.16149" height="1.74223" fill="#D10000"/>
<rect x="6.96875" y="11.6152" width="1.74223" height="1.74223" fill="#D10000"/>
<rect x="8.71094" y="11.6152" width="1.16149" height="1.74223" fill="#FF0000"/>
<rect x="9.87305" y="11.6152" width="1.74223" height="1.74223" fill="#FF0000"/>
<rect x="6.96875" y="13.3574" width="1.74223" height="1.16149" fill="#D10000"/>
<path d="M8.71094 13.3574H9.87243V14.5189H8.71094V13.3574Z" fill="#D10000"/>
</svg>
